<svg id="Layer_1" data-name="Layer 1" xmlns="http://www.w3.org/2000/svg" viewBox="0 0 1000 1000"><defs><style>.cls-1{fill:#1f201f;}.cls-2{fill:#48b500;}</style></defs><path class="cls-1" d="M504.63,444.74c-17.29,27.22-23.5,56.71-18.49,87.64a151.61,151.61,0,0,0,11.33,37.2c-14.13,17.68-28.68,35.86-37.67,47.1l-.06.07-11.35,14.19-6.65,7.62H345a7.63,7.63,0,0,1-1.76-.23H327.32c19.33-22.15,90-103,107.89-123.88A20.73,20.73,0,0,0,437.08,490c-10.35-13.24-96.89-112.7-109.87-128.08h114l.6.69a7.39,7.39,0,0,1,2.11,1.34l64.59,75Q506.53,441.77,504.63,444.74Z"/><path class="cls-2" d="M668,632.71l-37.31-44-18.93-23.3s-16.44-21.85-16.83-22.69a56.26,56.26,0,0,1-5.14-23.23c0-15.88,7.3-36.48,38.23-52.44l44.18,44.18V361.44H522.41l43.64,43.64c-12.22,8-33.33,24.12-48.43,47.9C492,493.4,483.68,555.93,566.08,638.33H672.79Z"/></svg>